

<svg width="276" height="142" viewBox="0 0 676 142" fill="none" xmlns="http://www.w3.org/2000/svg">
<path d="M9.05213 87.6875C7.89946 87.6875 7.05013 87.4448 6.50413 86.9595C6.01879 86.4135 5.77613 85.5642 5.77613 84.4115V73.5825C5.77613 72.4298 6.01879 71.6108 6.50413 71.1255C7.05013 70.5795 7.89946 70.3065 9.05213 70.3065H18.0611V39.7305H9.05213C7.89946 39.7305 7.05013 39.4878 6.50413 39.0025C6.01879 38.4565 5.77613 37.6072 5.77613 36.4545V25.4435C5.77613 24.2908 6.01879 23.4718 6.50413 22.9865C7.05013 22.4405 7.89946 22.1675 9.05213 22.1675H47.8181C48.9708 22.1675 49.7898 22.4405 50.2751 22.9865C50.8211 23.4718 51.0941 24.2908 51.0941 25.4435V36.4545C51.0941 37.6072 50.8211 38.4565 50.2751 39.0025C49.7898 39.4878 48.9708 39.7305 47.8181 39.7305H38.9911V70.3065H47.8181C48.9708 70.3065 49.7898 70.5795 50.2751 71.1255C50.8211 71.6108 51.0941 72.4298 51.0941 73.5825V84.4115C51.0941 85.5642 50.8211 86.4135 50.2751 86.9595C49.7898 87.4448 48.9708 87.6875 47.8181 87.6875H9.05213ZM79.2558 87.6875H65.6058C64.4531 87.6875 63.6038 87.4448 63.0578 86.9595C62.5724 86.4135 62.3298 85.5642 62.3298 84.4115V25.4435C62.3298 24.2908 62.5724 23.4718 63.0578 22.9865C63.6038 22.4405 64.4531 22.1675 65.6058 22.1675H75.0698C76.2224 22.1675 77.1931 22.3495 77.9818 22.7135C78.8311 23.0775 79.6501 23.7145 80.4388 24.6245L98.0928 44.8265V25.4435C98.0928 24.2908 98.3354 23.4718 98.8208 22.9865C99.3668 22.4405 100.216 22.1675 101.369 22.1675H115.019C116.171 22.1675 116.99 22.4405 117.476 22.9865C118.022 23.4718 118.295 24.2908 118.295 25.4435V84.4115C118.295 85.5642 118.022 86.4135 117.476 86.9595C116.99 87.4448 116.171 87.6875 115.019 87.6875H101.369C100.216 87.6875 99.3668 87.4448 98.8208 86.9595C98.3354 86.4135 98.0928 85.5642 98.0928 84.4115V73.2185L82.5318 54.3815V84.4115C82.5318 85.5642 82.2588 86.4135 81.7128 86.9595C81.2274 87.4448 80.4084 87.6875 79.2558 87.6875ZM164.789 87.6875H134.122C132.97 87.6875 132.12 87.4448 131.574 86.9595C131.089 86.4135 130.846 85.5642 130.846 84.4115V25.4435C130.846 24.2908 131.089 23.4718 131.574 22.9865C132.12 22.4405 132.97 22.1675 134.122 22.1675H164.789C172.373 22.1675 177.984 23.6842 181.624 26.7175C185.325 29.7508 187.175 34.4222 187.175 40.7315V69.1235C187.175 75.4328 185.325 80.1042 181.624 83.1375C177.984 86.1708 172.373 87.6875 164.789 87.6875ZM151.503 39.5485V70.4885H162.332C163.788 70.4885 164.85 70.1245 165.517 69.3965C166.245 68.6685 166.609 67.5462 166.609 66.0295V43.9165C166.609 42.3998 166.245 41.3078 165.517 40.6405C164.85 39.9125 163.788 39.5485 162.332 39.5485H151.503ZM200.561 87.6875C199.408 87.6875 198.559 87.4448 198.013 86.9595C197.528 86.4135 197.285 85.5642 197.285 84.4115V73.5825C197.285 72.4298 197.528 71.6108 198.013 71.1255C198.559 70.5795 199.408 70.3065 200.561 70.3065H209.57V39.7305H200.561C199.408 39.7305 198.559 39.4878 198.013 39.0025C197.528 38.4565 197.285 37.6072 197.285 36.4545V25.4435C197.285 24.2908 197.528 23.4718 198.013 22.9865C198.559 22.4405 199.408 22.1675 200.561 22.1675H239.327C240.48 22.1675 241.299 22.4405 241.784 22.9865C242.33 23.4718 242.603 24.2908 242.603 25.4435V36.4545C242.603 37.6072 242.33 38.4565 241.784 39.0025C241.299 39.4878 240.48 39.7305 239.327 39.7305H230.5V70.3065H239.327C240.48 70.3065 241.299 70.5795 241.784 71.1255C242.33 71.6108 242.603 72.4298 242.603 73.5825V84.4115C242.603 85.5642 242.33 86.4135 241.784 86.9595C241.299 87.4448 240.48 87.6875 239.327 87.6875H200.561ZM277.59 41.2775L273.313 55.1095H287.6L283.323 41.2775C283.08 40.7315 282.807 40.3372 282.504 40.0945C282.261 39.8518 281.958 39.7305 281.594 39.7305H279.319C278.955 39.7305 278.621 39.8518 278.318 40.0945C278.075 40.3372 277.832 40.7315 277.59 41.2775ZM272.403 84.4115C272.403 85.5642 272.13 86.4135 271.584 86.9595C271.098 87.4448 270.279 87.6875 269.127 87.6875H255.75C254.597 87.6875 253.748 87.4448 253.202 86.9595C252.716 86.4135 252.474 85.5642 252.474 84.4115V60.3875C252.474 58.5675 252.747 56.4745 253.293 54.1085C253.899 51.7425 254.809 48.9822 256.023 45.8275L263.94 25.1705C264.304 24.1392 264.85 23.3808 265.578 22.8955C266.366 22.4102 267.367 22.1675 268.581 22.1675H293.06C294.212 22.1675 295.153 22.4102 295.881 22.8955C296.669 23.3808 297.246 24.1392 297.61 25.1705L305.527 45.8275C306.74 48.9822 307.62 51.7425 308.166 54.1085C308.772 56.4745 309.076 58.5675 309.076 60.3875V84.4115C309.076 85.5642 308.803 86.4135 308.257 86.9595C307.771 87.4448 306.952 87.6875 305.8 87.6875H292.059C290.845 87.6875 289.935 87.4448 289.329 86.9595C288.783 86.4135 288.51 85.5642 288.51 84.4115V71.6715H272.403V84.4115ZM337.237 87.6875H323.587C322.435 87.6875 321.585 87.4448 321.039 86.9595C320.554 86.4135 320.311 85.5642 320.311 84.4115V25.4435C320.311 24.2908 320.554 23.4718 321.039 22.9865C321.585 22.4405 322.435 22.1675 323.587 22.1675H333.051C334.204 22.1675 335.175 22.3495 335.963 22.7135C336.813 23.0775 337.632 23.7145 338.42 24.6245L356.074 44.8265V25.4435C356.074 24.2908 356.317 23.4718 356.802 22.9865C357.348 22.4405 358.198 22.1675 359.35 22.1675H373C374.153 22.1675 374.972 22.4405 375.457 22.9865C376.003 23.4718 376.276 24.2908 376.276 25.4435V84.4115C376.276 85.5642 376.003 86.4135 375.457 86.9595C374.972 87.4448 374.153 87.6875 373 87.6875H359.35C358.198 87.6875 357.348 87.4448 356.802 86.9595C356.317 86.4135 356.074 85.5642 356.074 84.4115V73.2185L340.513 54.3815V84.4115C340.513 85.5642 340.24 86.4135 339.694 86.9595C339.209 87.4448 338.39 87.6875 337.237 87.6875Z" fill="#BEF646"/>
<path d="M428.898 98.5165H414.156C412.7 98.5165 411.638 98.1828 410.971 97.5155C410.304 96.8482 409.97 95.7865 409.97 94.3305V50.5595H397.503C396.047 50.5595 394.985 50.2258 394.318 49.5585C393.651 48.8912 393.317 47.8295 393.317 46.3735V35.3625C393.317 34.5738 393.408 33.9065 393.59 33.3605C393.833 32.8145 394.166 32.3595 394.591 31.9955L406.33 22.0765C406.633 21.8338 407.028 21.6518 407.513 21.5305C408.059 21.3485 408.635 21.2575 409.242 21.2575H457.29C458.746 21.2575 459.808 21.5912 460.475 22.2585C461.142 22.9258 461.476 23.9875 461.476 25.4435V36.4545C461.476 37.2432 461.355 37.9105 461.112 38.4565C460.93 39.0025 460.627 39.4575 460.202 39.8215L448.372 49.6495C448.129 49.8922 447.735 50.1045 447.189 50.2865C446.704 50.4685 446.158 50.5595 445.551 50.5595H444.823V84.4115C444.823 85.2002 444.702 85.8675 444.459 86.4135C444.277 86.9595 443.974 87.4145 443.549 87.7785L431.719 97.6065C431.476 97.8492 431.082 98.0615 430.536 98.2435C430.051 98.4255 429.505 98.5165 428.898 98.5165ZM440.637 87.6875C441.79 87.6875 442.609 87.4448 443.094 86.9595C443.64 86.4135 443.913 85.5642 443.913 84.4115V39.7305H457.29C458.443 39.7305 459.262 39.4878 459.747 39.0025C460.293 38.4565 460.566 37.6072 460.566 36.4545V25.4435C460.566 24.2908 460.293 23.4718 459.747 22.9865C459.262 22.4405 458.443 22.1675 457.29 22.1675H409.242C408.089 22.1675 407.24 22.4405 406.694 22.9865C406.209 23.4718 405.966 24.2908 405.966 25.4435V36.4545C405.966 37.6072 406.209 38.4565 406.694 39.0025C407.24 39.4878 408.089 39.7305 409.242 39.7305H422.619V84.4115C422.619 85.5642 422.862 86.4135 423.347 86.9595C423.893 87.4448 424.742 87.6875 425.895 87.6875H440.637ZM432.811 79.4975V31.2675H414.156V30.3575H452.376V31.2675H433.721V79.4975H432.811ZM512.241 98.5165H470.017C468.561 98.5165 467.5 98.1828 466.832 97.5155C466.165 96.8482 465.831 95.7865 465.831 94.3305V35.3625C465.831 34.5738 465.922 33.9065 466.104 33.3605C466.347 32.8145 466.681 32.3595 467.105 31.9955L478.844 22.0765C479.148 21.8338 479.542 21.6518 480.027 21.5305C480.573 21.3485 481.15 21.2575 481.756 21.2575H523.98C525.436 21.2575 526.498 21.5912 527.165 22.2585C527.833 22.9258 528.166 23.9875 528.166 25.4435V36.0905C528.166 36.8792 528.045 37.5465 527.802 38.0925C527.62 38.6385 527.317 39.0935 526.892 39.4575L519.066 45.9185C519.673 46.2218 520.098 46.6768 520.34 47.2835C520.644 47.8902 520.795 48.6788 520.795 49.6495V59.3865C520.795 60.1752 520.674 60.8425 520.431 61.3885C520.249 61.9345 519.946 62.3895 519.521 62.7535L511.422 69.5785H523.98C525.436 69.5785 526.498 69.9122 527.165 70.5795C527.833 71.2468 528.166 72.3085 528.166 73.7645V84.4115C528.166 85.2002 528.045 85.8675 527.802 86.4135C527.62 86.9595 527.317 87.4145 526.892 87.7785L515.062 97.6065C514.82 97.8492 514.425 98.0615 513.879 98.2435C513.394 98.4255 512.848 98.5165 512.241 98.5165ZM523.98 87.6875C525.133 87.6875 525.952 87.4448 526.437 86.9595C526.983 86.4135 527.256 85.5642 527.256 84.4115V73.7645C527.256 72.6118 526.983 71.7928 526.437 71.3075C525.952 70.7615 525.133 70.4885 523.98 70.4885H498.864V62.6625H516.609C517.762 62.6625 518.581 62.4198 519.066 61.9345C519.612 61.3885 519.885 60.5392 519.885 59.3865V49.6495C519.885 48.4968 519.612 47.6778 519.066 47.1925C518.581 46.6465 517.762 46.3735 516.609 46.3735H498.864V39.3665H523.98C525.133 39.3665 525.952 39.1238 526.437 38.6385C526.983 38.0925 527.256 37.2432 527.256 36.0905V25.4435C527.256 24.2908 526.983 23.4718 526.437 22.9865C525.952 22.4405 525.133 22.1675 523.98 22.1675H481.756C480.604 22.1675 479.754 22.4405 479.208 22.9865C478.723 23.4718 478.48 24.2908 478.48 25.4435V84.4115C478.48 85.5642 478.723 86.4135 479.208 86.9595C479.754 87.4448 480.604 87.6875 481.756 87.6875H523.98ZM519.066 78.5875V79.4975H488.399V30.3575H519.066V31.2675H489.309V54.1085H511.695V55.0185H489.309V78.5875H519.066ZM578.491 98.5165H556.287C548.34 98.5165 542.455 96.4538 538.633 92.3285C534.872 88.2032 532.991 82.8645 532.991 76.3125V50.7415C532.991 47.4048 533.477 44.5232 534.447 42.0965C535.418 39.6092 536.844 37.5465 538.724 35.9085L550.554 25.9895C552.435 24.4122 554.831 23.2292 557.743 22.4405C560.655 21.6518 564.083 21.2575 568.026 21.2575H590.23C591.686 21.2575 592.748 21.5912 593.415 22.2585C594.083 22.9258 594.416 23.9875 594.416 25.4435V36.4545C594.416 37.2432 594.295 37.9105 594.052 38.4565C593.87 39.0025 593.567 39.4575 593.142 39.8215L581.312 49.6495C581.07 49.8922 580.675 50.1045 580.129 50.2865C579.644 50.4685 579.098 50.5595 578.491 50.5595H567.298V65.9385C567.298 67.2125 567.693 68.1225 568.481 68.6685C569.27 69.1538 570.423 69.3965 571.939 69.3965H590.23C591.686 69.3965 592.748 69.7302 593.415 70.3975C594.083 71.0648 594.416 72.1265 594.416 73.5825V84.4115C594.416 85.2002 594.295 85.8675 594.052 86.4135C593.87 86.9595 593.567 87.4145 593.142 87.7785L581.312 97.6065C581.07 97.8492 580.675 98.0615 580.129 98.2435C579.644 98.4255 579.098 98.5165 578.491 98.5165ZM590.23 87.6875C591.383 87.6875 592.202 87.4448 592.687 86.9595C593.233 86.4135 593.506 85.5642 593.506 84.4115V73.5825C593.506 72.4298 593.233 71.6108 592.687 71.1255C592.202 70.5795 591.383 70.3065 590.23 70.3065H571.939C570.059 70.3065 568.663 69.9728 567.753 69.3055C566.843 68.5775 566.388 67.4552 566.388 65.9385V44.2805C566.388 42.7638 566.843 41.6415 567.753 40.9135C568.663 40.1248 570.059 39.7305 571.939 39.7305H590.23C591.383 39.7305 592.202 39.4878 592.687 39.0025C593.233 38.4565 593.506 37.6072 593.506 36.4545V25.4435C593.506 24.2908 593.233 23.4718 592.687 22.9865C592.202 22.4405 591.383 22.1675 590.23 22.1675H568.026C560.443 22.1675 554.801 23.7145 551.1 26.8085C547.46 29.8418 545.64 34.5132 545.64 40.8225V69.1235C545.64 75.4328 547.46 80.1042 551.1 83.1375C554.801 86.1708 560.443 87.6875 568.026 87.6875H590.23ZM585.225 78.5875V79.4975H570.028C564.144 79.4975 560.231 78.5875 558.289 76.7675C556.409 74.9475 555.468 71.9445 555.468 67.7585V42.2785C555.468 37.9712 556.439 34.9075 558.38 33.0875C560.322 31.2675 564.204 30.3575 570.028 30.3575H585.225V31.2675H570.028C564.69 31.2675 561.08 32.1168 559.199 33.8155C557.319 35.4535 556.378 38.2745 556.378 42.2785V67.7585C556.378 71.7018 557.288 74.4925 559.108 76.1305C560.928 77.7685 564.568 78.5875 570.028 78.5875H585.225ZM622.676 79.4975V30.3575H623.586V54.4725H658.53V30.3575H659.44V79.4975H658.53V55.3825H623.586V79.4975H622.676ZM630.229 87.6875C631.381 87.6875 632.2 87.4448 632.686 86.9595C633.232 86.4135 633.505 85.5642 633.505 84.4115V64.2095H648.702V84.4115C648.702 85.5642 648.944 86.4135 649.43 86.9595C649.976 87.4448 650.825 87.6875 651.978 87.6875H666.083C667.235 87.6875 668.054 87.4448 668.54 86.9595C669.086 86.4135 669.359 85.5642 669.359 84.4115V25.4435C669.359 24.2908 669.086 23.4718 668.54 22.9865C668.054 22.4405 667.235 22.1675 666.083 22.1675H651.978C650.825 22.1675 649.976 22.4405 649.43 22.9865C648.944 23.4718 648.702 24.2908 648.702 25.4435V45.1905H633.505V25.4435C633.505 24.2908 633.232 23.4718 632.686 22.9865C632.2 22.4405 631.381 22.1675 630.229 22.1675H616.124C614.971 22.1675 614.122 22.4405 613.576 22.9865C613.09 23.4718 612.848 24.2908 612.848 25.4435V84.4115C612.848 85.5642 613.09 86.4135 613.576 86.9595C614.122 87.4448 614.971 87.6875 616.124 87.6875H630.229ZM633.141 87.7785L621.311 97.6065C621.068 97.8492 620.674 98.0615 620.128 98.2435C619.642 98.4255 619.096 98.5165 618.49 98.5165H604.385C602.929 98.5165 601.867 98.1828 601.2 97.5155C600.532 96.8482 600.199 95.7865 600.199 94.3305V35.3625C600.199 34.5738 600.29 33.9065 600.472 33.3605C600.714 32.8145 601.048 32.3595 601.473 31.9955L613.212 22.0765C613.515 21.8338 613.909 21.6518 614.395 21.5305C614.941 21.3485 615.517 21.2575 616.124 21.2575H630.229C631.685 21.2575 632.746 21.5912 633.414 22.2585C634.081 22.9258 634.415 23.9875 634.415 25.4435V44.2805H636.053V35.3625C636.053 34.5738 636.144 33.9065 636.326 33.3605C636.568 32.8145 636.902 32.3595 637.327 31.9955L649.066 22.0765C649.369 21.8338 649.763 21.6518 650.249 21.5305C650.795 21.3485 651.371 21.2575 651.978 21.2575H666.083C667.539 21.2575 668.6 21.5912 669.268 22.2585C669.935 22.9258 670.269 23.9875 670.269 25.4435V84.4115C670.269 85.2002 670.147 85.8675 669.905 86.4135C669.723 86.9595 669.419 87.4145 668.995 87.7785L657.165 97.6065C656.922 97.8492 656.528 98.0615 655.982 98.2435C655.496 98.4255 654.95 98.5165 654.344 98.5165H640.239C638.783 98.5165 637.721 98.1828 637.054 97.5155C636.386 96.8482 636.053 95.7865 636.053 94.3305V75.0385H634.415V84.4115C634.415 85.2002 634.293 85.8675 634.051 86.4135C633.869 86.9595 633.565 87.4145 633.141 87.7785Z" fill="#BEF646"/>
<rect x="0.953125" y="124.049" width="255.526" height="3.27609" fill="#BEF646"/>
<path d="M270.39 129.207C270.453 130.346 270.722 131.271 271.196 131.982C272.099 133.313 273.689 133.979 275.968 133.979C276.989 133.979 277.918 133.833 278.757 133.541C280.379 132.976 281.19 131.964 281.19 130.506C281.19 129.412 280.849 128.633 280.165 128.168C279.472 127.712 278.388 127.316 276.911 126.979L274.19 126.363C272.413 125.962 271.155 125.52 270.417 125.037C269.141 124.199 268.503 122.945 268.503 121.277C268.503 119.473 269.127 117.992 270.376 116.834C271.625 115.676 273.393 115.098 275.681 115.098C277.786 115.098 279.573 115.608 281.04 116.629C282.517 117.641 283.255 119.263 283.255 121.496H280.698C280.562 120.421 280.27 119.596 279.823 119.021C278.994 117.973 277.586 117.449 275.599 117.449C273.994 117.449 272.841 117.786 272.14 118.461C271.438 119.135 271.087 119.919 271.087 120.812C271.087 121.797 271.497 122.517 272.317 122.973C272.855 123.264 274.072 123.629 275.968 124.066L278.784 124.709C280.142 125.019 281.19 125.443 281.929 125.98C283.205 126.919 283.843 128.282 283.843 130.068C283.843 132.292 283.032 133.883 281.409 134.84C279.796 135.797 277.918 136.275 275.776 136.275C273.279 136.275 271.324 135.637 269.911 134.361C268.498 133.094 267.806 131.376 267.833 129.207H270.39ZM295.956 115.057C299.502 115.057 302.127 116.196 303.831 118.475C305.162 120.252 305.827 122.526 305.827 125.297C305.827 128.296 305.066 130.788 303.544 132.775C301.757 135.109 299.21 136.275 295.901 136.275C292.812 136.275 290.382 135.255 288.614 133.213C287.037 131.244 286.249 128.756 286.249 125.748C286.249 123.032 286.924 120.708 288.272 118.775C290.004 116.296 292.565 115.057 295.956 115.057ZM296.229 133.842C298.627 133.842 300.358 132.985 301.425 131.271C302.5 129.549 303.038 127.571 303.038 125.338C303.038 122.977 302.418 121.077 301.179 119.637C299.948 118.197 298.262 117.477 296.12 117.477C294.042 117.477 292.347 118.192 291.034 119.623C289.722 121.045 289.065 123.146 289.065 125.926C289.065 128.15 289.626 130.027 290.747 131.559C291.877 133.081 293.705 133.842 296.229 133.842ZM309.081 115.604H311.802V133.295H321.974V135.688H309.081V115.604ZM327.62 115.604V128.018C327.62 129.476 327.894 130.688 328.44 131.654C329.252 133.113 330.619 133.842 332.542 133.842C334.848 133.842 336.416 133.053 337.245 131.477C337.692 130.62 337.915 129.467 337.915 128.018V115.604H340.677V126.883C340.677 129.353 340.344 131.253 339.679 132.584C338.457 135.008 336.151 136.221 332.761 136.221C329.37 136.221 327.069 135.008 325.856 132.584C325.191 131.253 324.858 129.353 324.858 126.883V115.604H327.62ZM359.517 115.604V117.996H352.749V135.688H349.987V117.996H343.22V115.604H359.517ZM362.634 115.604H365.382V135.688H362.634V115.604ZM378.479 115.057C382.025 115.057 384.65 116.196 386.354 118.475C387.685 120.252 388.351 122.526 388.351 125.297C388.351 128.296 387.59 130.788 386.067 132.775C384.281 135.109 381.733 136.275 378.425 136.275C375.335 136.275 372.906 135.255 371.138 133.213C369.561 131.244 368.772 128.756 368.772 125.748C368.772 123.032 369.447 120.708 370.796 118.775C372.528 116.296 375.089 115.057 378.479 115.057ZM378.753 133.842C381.15 133.842 382.882 132.985 383.948 131.271C385.024 129.549 385.562 127.571 385.562 125.338C385.562 122.977 384.942 121.077 383.702 119.637C382.472 118.197 380.785 117.477 378.644 117.477C376.565 117.477 374.87 118.192 373.558 119.623C372.245 121.045 371.589 123.146 371.589 125.926C371.589 128.15 372.149 130.027 373.271 131.559C374.401 133.081 376.228 133.842 378.753 133.842ZM391.604 115.604H394.817L404.962 131.873V115.604H407.546V135.688H404.497L394.202 119.432V135.688H391.604V115.604Z" fill="#BEF646"/>
<rect x="420.479" y="124.049" width="255.526" height="3.27609" fill="#BEF646"/>
</svg>
